<svg width="28" height="29" viewBox="0 0 28 29" fill="none" xmlns="http://www.w3.org/2000/svg">
<path d="M4.45162 12.6875H5.26746C6.76015 15.8877 10.1565 18.125 14.1209 18.125C18.0853 18.125 21.4816 15.8877 22.9743 12.6875H23.7901C24.3219 12.6875 24.757 12.2797 24.757 11.7812V6.34375C24.757 5.84531 24.3219 5.4375 23.7901 5.4375H22.9743C21.4816 2.2373 18.0853 0 14.1209 0C10.1565 0 6.76015 2.2373 5.26746 5.4375H4.45162C3.91981 5.4375 3.4847 5.84531 3.4847 6.34375V11.7812C3.4847 12.2797 3.91981 12.6875 4.45162 12.6875ZM6.86893 7.70312C6.86893 6.45137 8.16824 5.4375 9.76971 5.4375H18.472C20.0735 5.4375 21.3728 6.45137 21.3728 7.70312V9.0625C21.3728 12.0645 18.7742 14.5 15.5713 14.5H12.6705C9.46754 14.5 6.86893 12.0645 6.86893 9.0625V7.70312ZM11.2201 11.7812L11.9453 9.74219L14.1209 9.0625L11.9453 8.38281L11.2201 6.34375L10.4949 8.38281L8.31932 9.0625L10.4949 9.74219L11.2201 11.7812ZM20.3817 18.2043C18.5748 19.2975 16.4294 19.9375 14.1209 19.9375C11.8123 19.9375 9.66697 19.2975 7.86003 18.2043C3.78082 18.6064 0.583923 21.8066 0.583923 25.7375V26.2812C0.583923 27.7822 1.88323 29 3.4847 29H8.31932V25.375C8.31932 24.3725 9.18351 23.5625 10.2532 23.5625H17.9886C19.0582 23.5625 19.9224 24.3725 19.9224 25.375V29H24.757C26.3585 29 27.6578 27.7822 27.6578 26.2812V25.7375C27.6578 21.8066 24.4609 18.6064 20.3817 18.2043ZM17.0216 25.375C16.4898 25.375 16.0547 25.7828 16.0547 26.2812C16.0547 26.7797 16.4898 27.1875 17.0216 27.1875C17.5534 27.1875 17.9886 26.7797 17.9886 26.2812C17.9886 25.7828 17.5534 25.375 17.0216 25.375ZM11.2201 25.375C10.6883 25.375 10.2532 25.7828 10.2532 26.2812V29H12.187V26.2812C12.187 25.7828 11.7519 25.375 11.2201 25.375Z" fill="white"/>
</svg>
