<svg width="30" height="29" viewBox="0 0 30 29" fill="none" xmlns="http://www.w3.org/2000/svg">
<path d="M29.0253 14.5C29.0253 22.5099 22.7476 29 15.0049 29C7.26219 29 0.984497 22.5099 0.984497 14.5C0.984497 6.49477 7.26219 0 15.0049 0C22.7476 0 29.0253 6.49477 29.0253 14.5ZM15.3811 4.79435C12.3002 4.79435 10.3352 6.1366 8.79217 8.52214C8.59227 8.8312 8.65915 9.24802 8.94566 9.47271L10.9073 11.011C11.2016 11.2418 11.6208 11.1869 11.8495 10.8869C12.8594 9.56216 13.5519 8.79396 15.089 8.79396C16.244 8.79396 17.6725 9.56269 17.6725 10.7209C17.6725 11.5966 16.9736 12.0462 15.8332 12.7074C14.5033 13.4785 12.7436 14.4381 12.7436 16.8387V17.0726C12.7436 17.46 13.0473 17.7742 13.422 17.7742H16.5879C16.9625 17.7742 17.2663 17.46 17.2663 17.0726V16.9946C17.2663 15.3305 21.9691 15.2612 21.9691 10.7581C21.9691 7.36682 18.5677 4.79435 15.3811 4.79435V4.79435ZM15.0049 19.2944C13.5709 19.2944 12.4044 20.5008 12.4044 21.9839C12.4044 23.4668 13.5709 24.6734 15.0049 24.6734C16.4389 24.6734 17.6055 23.4668 17.6055 21.9839C17.6055 20.5008 16.4389 19.2944 15.0049 19.2944Z" fill="white"/>
</svg>
