<svg width="31" height="29" viewBox="0 0 31 29" fill="none" xmlns="http://www.w3.org/2000/svg">
<g clip-path="url(#clip0_3_33)">
<path d="M26.9752 12.0833C22.8221 12.3111 18.8279 13.6727 15.4762 16.0032C12.1245 13.6727 8.13024 12.3111 3.97713 12.0833V15.66C3.29828 15.6613 2.64775 15.9175 2.16856 16.3722C1.68938 16.827 1.42077 17.4431 1.42179 18.0851V19.2983C1.42179 20.6383 3.97713 21.9663 3.97713 21.9663V24.3914C7.37064 24.5978 10.6433 25.662 13.4536 27.4727C14.1632 27.9384 14.8389 28.4486 15.4762 29C16.1134 28.4486 16.7891 27.9384 17.4987 27.4727C20.309 25.662 23.5817 24.5978 26.9752 24.3914V21.7234C27.6541 21.7221 28.3046 21.466 28.7838 21.0112C29.263 20.5564 29.5316 19.9403 29.5306 19.2983V18.0851C29.5316 17.4431 29.263 16.827 28.7838 16.3722C28.3046 15.9175 27.6541 15.6613 26.9752 15.66V12.0833ZM15.4762 25.8849C12.8263 24.0483 9.76685 22.8099 6.53248 22.2648V14.8335C9.01126 15.3058 11.3647 16.2434 13.4536 17.5909C14.1632 18.0566 14.8389 18.5669 15.4762 19.1183C16.1134 18.5669 16.7891 18.0566 17.4987 17.5909C19.5875 16.243 21.941 15.3049 24.4199 14.8323V22.2648C21.1855 22.8099 18.1261 24.0483 15.4762 25.8849V25.8849Z" fill="white"/>
<path d="M14.1985 9.66666H16.7538V10.875H14.1985V9.66666Z" fill="white"/>
<path d="M14.1985 4.83334H16.7538V6.04168H14.1985V4.83334Z" fill="white"/>
<path d="M14.1985 12.0833H16.7538V13.2917H14.1985V12.0833Z" fill="white"/>
<path d="M11.6431 6.04167C11.982 6.04167 12.307 5.91436 12.5466 5.68776C12.7862 5.46115 12.9208 5.1538 12.9208 4.83333C12.922 4.67593 12.8901 4.51987 12.827 4.37422C12.7638 4.22858 12.6707 4.09626 12.553 3.98495C12.4353 3.87364 12.2954 3.78557 12.1414 3.72585C11.9874 3.66613 11.8224 3.63596 11.6559 3.63708C11.489 3.63629 11.3235 3.6666 11.1689 3.72629C11.0144 3.78598 10.8738 3.87387 10.7551 3.98496C10.5155 4.2093 10.3799 4.51447 10.3783 4.83333C10.3766 5.1522 10.5089 5.45865 10.7461 5.68525C10.9833 5.91186 11.306 6.04007 11.6431 6.04167V6.04167Z" fill="white"/>
<path d="M19.3092 6.04167C20.0148 6.04167 20.5869 5.50068 20.5869 4.83333C20.5869 4.16599 20.0148 3.625 19.3092 3.625C18.6036 3.625 18.0315 4.16599 18.0315 4.83333C18.0315 5.50068 18.6036 6.04167 19.3092 6.04167Z" fill="white"/>
<path d="M20.5869 9.66667H10.3655C9.34922 9.66571 8.37487 9.28348 7.65626 8.60387C6.93765 7.92426 6.53349 7.00278 6.53247 6.04167V3.625C6.53349 2.66388 6.93765 1.74241 7.65626 1.0628C8.37487 0.383186 9.34922 0.000959677 10.3655 0L20.5869 0C21.6031 0.000959677 22.5775 0.383186 23.2961 1.0628C24.0147 1.74241 24.4189 2.66388 24.4199 3.625V6.04167C24.4189 7.00278 24.0147 7.92426 23.2961 8.60387C22.5775 9.28348 21.6031 9.66571 20.5869 9.66667ZM10.3655 2.41667C10.0267 2.41699 9.70195 2.5444 9.46241 2.77093C9.22287 2.99747 9.08815 3.30463 9.08782 3.625V6.04167C9.08815 6.36204 9.22287 6.6692 9.46241 6.89573C9.70195 7.12227 10.0267 7.24968 10.3655 7.25H20.5869C20.9256 7.24968 21.2504 7.12227 21.4899 6.89573C21.7295 6.6692 21.8642 6.36204 21.8645 6.04167V3.625C21.8642 3.30463 21.7295 2.99747 21.4899 2.77093C21.2504 2.5444 20.9256 2.41699 20.5869 2.41667H10.3655Z" fill="white"/>
</g>
<defs>
<clipPath id="clip0_3_33">
<rect width="30.6641" height="29" fill="white" transform="translate(0.144104)"/>
</clipPath>
</defs>
</svg>
